<?xml version="1.0" standalone="no"?><!DOCTYPE svg PUBLIC "-//W3C//DTD SVG 1.1//EN" "http://www.w3.org/Graphics/SVG/1.1/DTD/svg11.dtd"><svg t="1643099030096" class="icon" viewBox="0 0 1024 1024" version="1.1" xmlns="http://www.w3.org/2000/svg" p-id="10224" xmlns:xlink="http://www.w3.org/1999/xlink" width="20" height="20"><defs><style type="text/css"></style></defs><path d="M511.5 792.2c-20.8 0-37.7-16.9-37.7-37.7V422c0-20.8 16.9-37.7 37.7-37.7s37.7 16.9 37.7 37.7v332.5c0 20.8-16.9 37.7-37.7 37.7z" p-id="10225" fill="#bfbfbf"></path><path d="M511.5 298.8m-46.8 0a46.8 46.8 0 1 0 93.6 0 46.8 46.8 0 1 0-93.6 0Z" p-id="10226" fill="#bfbfbf"></path><path d="M511.5 962C264.7 962 64 761.3 64 514.5S264.7 67 511.5 67 959 267.7 959 514.5 758.3 962 511.5 962z m0-841.1c-217 0-393.6 176.6-393.6 393.6s176.6 393.6 393.6 393.6 393.6-176.6 393.6-393.6-176.6-393.6-393.6-393.6z" p-id="10227" fill="#bfbfbf"></path></svg>